<svg id="visual" viewBox="0 0 900 600" width="900" height="600" xmlns="http://www.w3.org/2000/svg" xmlns:xlink="http://www.w3.org/1999/xlink" version="1.1"><rect x="0" y="0" width="900" height="600" fill="#002233"></rect><path d="M279 0L285 14.3C291 28.7 303 57.3 285.8 85.8C268.7 114.3 222.3 142.7 216.8 171.2C211.3 199.7 246.7 228.3 263 257C279.3 285.7 276.7 314.3 269.2 343C261.7 371.7 249.3 400.3 246 428.8C242.7 457.3 248.3 485.7 246.8 514.2C245.3 542.7 236.7 571.3 232.3 585.7L228 600L0 600L0 585.7C0 571.3 0 542.7 0 514.2C0 485.7 0 457.3 0 428.8C0 400.3 0 371.7 0 343C0 314.3 0 285.7 0 257C0 228.3 0 199.7 0 171.2C0 142.7 0 114.3 0 85.8C0 57.3 0 28.7 0 14.3L0 0Z" fill="#0066FF" stroke-linecap="round" stroke-linejoin="miter"></path></svg>