<svg id="visual" viewBox="0 0 900 600" width="900" height="600" xmlns="http://www.w3.org/2000/svg" xmlns:xlink="http://www.w3.org/1999/xlink" version="1.1"><rect x="0" y="0" width="900" height="600" fill="#009473"></rect><path d="M0 439L21.5 446.2C43 453.3 86 467.7 128.8 479.2C171.7 490.7 214.3 499.3 257.2 489.7C300 480 343 452 385.8 454.3C428.7 456.7 471.3 489.3 514.2 495.5C557 501.7 600 481.3 642.8 479.2C685.7 477 728.3 493 771.2 487.7C814 482.3 857 455.7 878.5 442.3L900 429L900 601L878.5 601C857 601 814 601 771.2 601C728.3 601 685.7 601 642.8 601C600 601 557 601 514.2 601C471.3 601 428.7 601 385.8 601C343 601 300 601 257.2 601C214.3 601 171.7 601 128.8 601C86 601 43 601 21.5 601L0 601Z" fill="#F7CACA" stroke-linecap="round" stroke-linejoin="miter"></path></svg>